<?xml version="1.0" encoding="UTF-8" standalone="no"?><!DOCTYPE svg PUBLIC "-//W3C//DTD SVG 1.1//EN" "http://www.w3.org/Graphics/SVG/1.1/DTD/svg11.dtd"><svg width="100%" height="100%" viewBox="0 0 329 135" version="1.1" xmlns="http://www.w3.org/2000/svg" xmlns:xlink="http://www.w3.org/1999/xlink" xml:space="preserve" xmlns:serif="http://www.serif.com/" style="fill-rule:evenodd;clip-rule:evenodd;stroke-linejoin:round;stroke-miterlimit:2;"><text x="3.538px" y="64.117px" style="font-family:'Arial-BoldMT', 'Arial', sans-serif;font-weight:700;font-size:55.992px;fill:#fff;">Star</text><path d="M35.235,87.083l0,27.512c0,8.053 -6.538,14.591 -14.591,14.591c-8.053,0 -14.591,-6.538 -14.591,-14.591l0,-27.512c0,-8.053 6.538,-14.591 14.591,-14.591c8.053,0 14.591,6.538 14.591,14.591Z" style="fill:#fff;"/><path d="M71.113,87.083l0,27.512c0,8.053 -6.538,14.591 -14.591,14.591c-8.053,0 -14.591,-6.538 -14.591,-14.591l0,-27.512c0,-8.053 6.538,-14.591 14.591,-14.591c8.053,0 14.591,6.538 14.591,14.591Z" style="fill:#fff;"/><path d="M106.991,87.083l0,27.512c0,8.053 -6.538,14.591 -14.591,14.591c-8.053,0 -14.591,-6.538 -14.591,-14.591l0,-27.512c0,-8.053 6.538,-14.591 14.591,-14.591c8.053,0 14.591,6.538 14.591,14.591Z" style="fill:#fff;"/><path d="M154.503,20.404l0,27.512c0,8.053 -6.538,14.591 -14.591,14.591c-8.053,0 -14.591,-6.538 -14.591,-14.591l0,-27.512c0,-8.053 6.538,-14.591 14.591,-14.591c8.053,0 14.591,6.538 14.591,14.591Z" style="fill:#fff;"/><path d="M311.289,20.404l0,27.512c0,8.053 -6.538,14.591 -14.591,14.591c-8.053,0 -14.591,-6.538 -14.591,-14.591l0,-27.512c0,-8.053 6.538,-14.591 14.591,-14.591c8.053,0 14.591,6.538 14.591,14.591Z" style="fill:#fff;"/><path d="M272.154,20.404l0,27.512c0,8.053 -6.538,14.591 -14.591,14.591c-8.053,0 -14.591,-6.538 -14.591,-14.591l0,-27.512c0,-8.053 6.538,-14.591 14.591,-14.591c8.053,0 14.591,6.538 14.591,14.591Z" style="fill:#fff;"/><path d="M232.947,20.404l0,27.512c0,8.053 -6.538,14.591 -14.591,14.591c-8.053,0 -14.591,-6.538 -14.591,-14.591l0,-27.512c0,-8.053 6.538,-14.591 14.591,-14.591c8.053,0 14.591,6.538 14.591,14.591Z" style="fill:#fff;"/><path d="M193.733,20.404l0,27.512c0,8.053 -6.538,14.591 -14.591,14.591c-8.053,0 -14.591,-6.538 -14.591,-14.591l0,-27.512c0,-8.053 6.538,-14.591 14.591,-14.591c8.053,0 14.591,6.538 14.591,14.591Z" style="fill:#fff;"/><text x="110.973px" y="109.116px" style="font-family:'Arial-BoldMT', 'Arial', sans-serif;font-weight:700;font-size:60.832px;fill:#fff;">System</text></svg>