<?xml version="1.0" encoding="UTF-8" standalone="no"?><!DOCTYPE svg PUBLIC "-//W3C//DTD SVG 1.1//EN" "http://www.w3.org/Graphics/SVG/1.1/DTD/svg11.dtd"><svg width="100%" height="100%" viewBox="0 0 329 135" version="1.1" xmlns="http://www.w3.org/2000/svg" xmlns:xlink="http://www.w3.org/1999/xlink" xml:space="preserve" xmlns:serif="http://www.serif.com/" style="fill-rule:evenodd;clip-rule:evenodd;stroke-linejoin:round;stroke-miterlimit:2;"><text x="3.538px" y="64.117px" style="font-family:'Arial-BoldMT', 'Arial', sans-serif;font-weight:700;font-size:55.992px;fill:url(#_Linear1);">Star</text><path d="M35.235,87.083l0,27.512c0,8.053 -6.538,14.591 -14.591,14.591c-8.053,0 -14.591,-6.538 -14.591,-14.591l0,-27.512c0,-8.053 6.538,-14.591 14.591,-14.591c8.053,0 14.591,6.538 14.591,14.591Z"/><path d="M71.113,87.083l0,27.512c0,8.053 -6.538,14.591 -14.591,14.591c-8.053,0 -14.591,-6.538 -14.591,-14.591l0,-27.512c0,-8.053 6.538,-14.591 14.591,-14.591c8.053,0 14.591,6.538 14.591,14.591Z"/><path d="M106.991,87.083l0,27.512c0,8.053 -6.538,14.591 -14.591,14.591c-8.053,0 -14.591,-6.538 -14.591,-14.591l0,-27.512c0,-8.053 6.538,-14.591 14.591,-14.591c8.053,0 14.591,6.538 14.591,14.591Z"/><path d="M154.503,20.404l0,27.512c0,8.053 -6.538,14.591 -14.591,14.591c-8.053,0 -14.591,-6.538 -14.591,-14.591l0,-27.512c0,-8.053 6.538,-14.591 14.591,-14.591c8.053,0 14.591,6.538 14.591,14.591Z"/><path d="M311.289,20.404l0,27.512c0,8.053 -6.538,14.591 -14.591,14.591c-8.053,0 -14.591,-6.538 -14.591,-14.591l0,-27.512c0,-8.053 6.538,-14.591 14.591,-14.591c8.053,0 14.591,6.538 14.591,14.591Z"/><path d="M272.154,20.404l0,27.512c0,8.053 -6.538,14.591 -14.591,14.591c-8.053,0 -14.591,-6.538 -14.591,-14.591l0,-27.512c0,-8.053 6.538,-14.591 14.591,-14.591c8.053,0 14.591,6.538 14.591,14.591Z"/><path d="M232.947,20.404l0,27.512c0,8.053 -6.538,14.591 -14.591,14.591c-8.053,0 -14.591,-6.538 -14.591,-14.591l0,-27.512c0,-8.053 6.538,-14.591 14.591,-14.591c8.053,0 14.591,6.538 14.591,14.591Z"/><path d="M193.733,20.404l0,27.512c0,8.053 -6.538,14.591 -14.591,14.591c-8.053,0 -14.591,-6.538 -14.591,-14.591l0,-27.512c0,-8.053 6.538,-14.591 14.591,-14.591c8.053,0 14.591,6.538 14.591,14.591Z"/><text x="110.973px" y="109.116px" style="font-family:'Arial-BoldMT', 'Arial', sans-serif;font-weight:700;font-size:60.832px;fill:url(#_Linear2);">System</text><defs><linearGradient id="_Linear1" x1="0" y1="0" x2="1" y2="0" gradientUnits="userSpaceOnUse" gradientTransform="matrix(1.688725,28.002434,-28.002434,1.688725,57.527991,105.908385)"><stop offset="0" style="stop-color:#000;stop-opacity:1"/><stop offset="1" style="stop-color:#4d4d4d;stop-opacity:1"/></linearGradient><linearGradient id="_Linear2" x1="0" y1="0" x2="1" y2="0" gradientUnits="userSpaceOnUse" gradientTransform="matrix(0,28.544911,-28.544911,0,337.99012,206.643337)"><stop offset="0" style="stop-color:#000;stop-opacity:1"/><stop offset="1" style="stop-color:#4d4d4d;stop-opacity:1"/></linearGradient></defs></svg>