<?xml version="1.0" encoding="UTF-8" standalone="no"?><!DOCTYPE svg PUBLIC "-//W3C//DTD SVG 1.1//EN" "http://www.w3.org/Graphics/SVG/1.1/DTD/svg11.dtd"><svg width="100%" height="100%" viewBox="0 0 91 94" version="1.1" xmlns="http://www.w3.org/2000/svg" xmlns:xlink="http://www.w3.org/1999/xlink" xml:space="preserve" xmlns:serif="http://www.serif.com/" style="fill-rule:evenodd;clip-rule:evenodd;stroke-linejoin:round;stroke-miterlimit:2;"><text x="10.794px" y="45.99px" style="font-family:'Arial-BoldMT', 'Arial', sans-serif;font-weight:700;font-size:55.992px;fill:#fff;">S</text><path d="M25.365,54.501l0,30.605c0,2.753 -2.235,4.988 -4.988,4.988c-2.753,0 -4.988,-2.235 -4.988,-4.988l0,-30.605c0,-2.753 2.235,-4.988 4.988,-4.988c2.753,0 4.988,2.235 4.988,4.988Z" style="fill:#fff;"/><path d="M58.489,8.674l0,30.605c0,2.753 -2.235,4.988 -4.988,4.988c-2.753,0 -4.988,-2.235 -4.988,-4.988l0,-30.605c0,-2.753 2.235,-4.988 4.988,-4.988c2.753,0 4.988,2.235 4.988,4.988Z" style="fill:#fff;"/><path d="M72.381,8.674l0,30.605c0,2.753 -2.235,4.988 -4.988,4.988c-2.753,0 -4.988,-2.235 -4.988,-4.988l0,-30.605c0,-2.753 2.235,-4.988 4.988,-4.988c2.753,0 4.988,2.235 4.988,4.988Z" style="fill:#fff;"/><path d="M39.238,54.501l0,30.605c0,2.753 -2.235,4.988 -4.988,4.988c-2.753,0 -4.988,-2.235 -4.988,-4.988l0,-30.605c0,-2.753 2.235,-4.988 4.988,-4.988c2.753,0 4.988,2.235 4.988,4.988Z" style="fill:#fff;"/><text x="39.762px" y="89.351px" style="font-family:'Arial-BoldMT', 'Arial', sans-serif;font-weight:700;font-size:60.832px;fill:#fff;">S</text></svg>