<svg xmlns="http://www.w3.org/2000/svg" width="1046" height="1002" viewBox="0 0 1046 1002">
<g>
<path d="M 631.75 799.52 C629.94,800.19 519.28,800.59 501.50,800.00 L 486.50 799.50 L 486.20 796.91 C485.94,794.66 486.48,794.10 490.20,792.74 C492.56,791.88 496.30,790.88 498.50,790.51 C504.06,789.57 508.32,786.70 512.32,781.20 C516.81,775.03 519.02,770.59 520.61,764.58 C522.45,757.62 522.80,229.10 520.97,221.50 C518.94,213.05 513.15,202.30 508.35,198.08 C504.82,194.97 502.91,194.09 498.42,193.53 C490.78,192.58 486.00,190.46 486.00,188.02 C486.00,186.95 486.91,185.58 488.02,184.99 C490.22,183.81 624.62,183.77 630.36,184.94 C632.81,185.44 633.50,186.10 633.50,187.93 C633.50,190.50 629.80,192.05 620.34,193.47 C613.48,194.50 606.89,198.18 602.03,203.70 C597.07,209.33 595.87,211.48 593.08,219.77 C591.00,225.93 591.00,226.26 591.00,410.30 C591.00,511.70 591.28,594.94 591.61,595.28 C592.43,596.09 597.00,593.07 597.00,591.72 C597.00,590.39 603.38,577.47 606.00,573.50 C607.09,571.85 608.28,569.83 608.65,569.00 C609.41,567.29 614.90,557.60 622.53,544.50 C625.42,539.55 629.93,531.45 632.56,526.50 C635.20,521.55 638.49,515.70 639.87,513.50 C641.25,511.30 643.94,506.58 645.84,503.00 C651.43,492.49 652.42,490.72 655.28,486.27 C656.78,483.94 658.00,481.69 658.00,481.25 C658.00,480.82 659.12,478.82 660.48,476.82 C661.84,474.81 665.37,468.52 668.32,462.84 C672.87,454.07 676.45,447.65 681.06,440.00 C681.56,439.17 683.12,436.25 684.54,433.50 C685.96,430.75 687.98,427.15 689.05,425.50 C690.11,423.85 691.29,421.83 691.67,421.00 C692.04,420.17 693.49,417.70 694.88,415.50 C696.27,413.30 698.68,409.02 700.22,406.00 C701.77,402.98 704.64,397.80 706.61,394.50 C710.16,388.56 714.58,380.64 720.28,370.00 C721.90,366.98 723.85,363.79 724.61,362.92 C725.38,362.05 726.00,360.85 726.00,360.25 C726.00,359.33 732.89,346.80 736.03,342.00 C736.57,341.17 737.30,339.83 737.65,339.00 C738.01,338.17 740.48,333.84 743.15,329.36 C745.82,324.88 748.00,320.94 748.00,320.59 C748.00,320.24 749.05,318.28 750.33,316.23 C752.56,312.67 757.60,303.67 762.78,294.00 C764.11,291.52 765.55,289.05 765.99,288.50 C766.43,287.95 768.18,284.91 769.89,281.75 C775.87,270.69 778.80,265.45 782.34,259.50 C790.07,246.53 800.00,225.32 800.00,221.80 C800.00,217.66 796.48,212.40 789.05,205.45 C781.20,198.10 772.98,194.50 761.62,193.42 C752.59,192.56 750.79,191.65 751.19,188.18 L 751.50 185.50 L 768.00 184.89 C789.49,184.09 847.57,184.09 875.50,184.88 C897.31,185.49 897.50,185.52 897.82,187.74 C898.23,190.65 896.01,191.52 884.50,192.95 C879.55,193.57 873.92,194.49 872.00,195.00 C856.76,199.02 851.18,200.93 842.00,205.25 C830.88,210.48 819.20,218.56 813.28,225.11 C809.51,229.28 802.48,239.57 800.36,244.00 C799.97,244.82 798.67,247.07 797.48,249.00 C796.29,250.93 792.94,257.00 790.03,262.50 C787.12,268.00 783.23,275.03 781.37,278.13 C779.52,281.23 778.00,284.05 778.00,284.41 C778.00,284.77 775.47,289.21 772.38,294.28 C769.29,299.35 766.36,304.40 765.86,305.50 C765.37,306.60 763.94,309.30 762.68,311.50 C761.42,313.70 758.90,318.14 757.09,321.37 C755.28,324.60 752.46,329.52 750.83,332.29 C749.19,335.07 746.08,340.75 743.92,344.92 C741.76,349.09 739.43,353.38 738.74,354.46 C735.32,359.87 732.50,364.89 729.26,371.37 C727.29,375.29 724.55,380.30 723.15,382.50 C720.38,386.88 717.11,392.77 713.17,400.50 C711.77,403.25 710.07,406.17 709.39,407.00 C708.71,407.83 705.14,414.34 701.44,421.49 C697.75,428.63 693.66,436.16 692.36,438.22 C691.06,440.28 690.00,442.57 690.00,443.30 C690.00,444.04 693.22,450.01 697.15,456.57 C701.09,463.13 705.60,470.98 707.18,474.00 C708.76,477.02 711.36,481.75 712.97,484.50 C714.57,487.25 717.50,492.54 719.47,496.26 C721.45,499.98 724.32,505.16 725.84,507.76 C727.37,510.37 728.94,513.17 729.32,514.00 C729.71,514.83 730.90,516.85 731.98,518.50 C733.06,520.15 734.61,522.85 735.43,524.50 C738.05,529.74 743.53,539.45 748.85,548.25 C751.68,552.94 754.00,557.04 754.00,557.36 C754.00,557.68 756.03,561.37 758.50,565.55 C760.97,569.74 763.00,573.36 763.00,573.60 C763.00,573.84 764.22,575.94 765.72,578.27 C767.22,580.60 769.49,584.53 770.77,587.00 C772.05,589.47 774.54,594.06 776.30,597.19 C783.26,609.57 788.36,618.69 790.44,622.50 C794.28,629.53 802.13,643.25 807.09,651.61 C809.74,656.07 814.26,664.17 817.14,669.61 C820.01,675.05 822.73,679.65 823.18,679.83 C823.63,680.02 824.00,680.63 824.00,681.20 C824.00,681.77 825.52,684.77 827.39,687.87 C829.25,690.97 832.43,696.65 834.47,700.50 C836.50,704.35 838.57,708.17 839.07,709.00 C845.13,718.96 852.00,731.45 852.00,732.52 C852.00,733.27 852.39,734.12 852.86,734.41 C853.33,734.71 856.34,739.35 859.54,744.72 C870.59,763.31 878.46,772.98 889.19,781.14 C898.86,788.50 903.94,790.83 912.16,791.64 C915.65,791.98 919.29,792.95 920.25,793.79 C922.29,795.57 922.53,798.38 920.75,799.63 C920.05,800.12 887.80,800.28 847.50,800.00 L 775.50 799.50 L 775.50 797.01 C775.50,795.16 776.39,794.08 779.00,792.81 C780.92,791.87 783.37,791.07 784.44,791.05 C787.97,790.96 792.90,786.64 794.98,781.81 C797.43,776.13 797.69,765.85 795.49,761.64 C794.67,760.06 794.00,758.18 794.00,757.47 C794.00,756.37 789.31,746.11 785.88,739.69 L 781.33 731.19 C779.36,727.51 777.41,724.05 776.99,723.50 C776.57,722.95 773.99,718.22 771.24,713.00 C768.49,707.78 764.93,701.25 763.31,698.50 C761.70,695.75 760.06,692.83 759.68,692.00 C759.30,691.17 758.16,689.15 757.16,687.50 C756.16,685.85 753.39,680.90 751.01,676.50 C748.62,672.10 745.69,666.70 744.48,664.50 C743.27,662.30 740.82,657.80 739.03,654.50 C737.24,651.20 733.94,645.35 731.69,641.50 C729.45,637.65 725.70,630.75 723.36,626.17 C721.02,621.58 718.68,617.31 718.16,616.67 C717.64,616.02 714.97,611.21 712.23,605.96 C709.48,600.72 705.38,593.40 703.12,589.69 C700.85,585.99 699.00,582.75 699.00,582.48 C699.00,582.22 696.69,577.84 693.88,572.75 C691.06,567.66 687.46,561.14 685.88,558.25 L 680.12 547.75 C675.22,538.80 667.39,524.86 662.61,516.56 C660.10,512.19 657.90,508.19 657.73,507.68 C657.01,505.54 653.31,508.31 650.50,513.07 C648.85,515.87 646.05,520.49 644.28,523.33 C642.51,526.17 640.74,529.17 640.35,530.00 C639.97,530.83 638.52,533.30 637.14,535.50 C635.76,537.70 632.96,542.73 630.93,546.67 C628.89,550.61 626.08,555.34 624.68,557.17 C623.28,559.01 621.65,561.63 621.06,563.00 C619.84,565.80 616.00,572.46 612.11,578.50 C609.63,582.36 605.42,589.82 602.81,595.00 C602.12,596.38 599.95,600.20 597.98,603.50 C596.44,606.08 595.24,607.91 594.31,609.86 C590.98,616.81 590.98,625.36 591.00,674.81 C591.00,678.37 591.00,682.15 591.00,686.16 C591.00,757.89 591.21,761.53 595.96,772.15 C597.83,776.33 603.09,782.44 608.14,786.29 C611.85,789.12 622.79,792.97 627.18,792.99 C631.49,793.01 635.17,798.27 631.75,799.52 ZM 403.00 799.99 C386.23,799.99 343.92,800.16 309.00,800.34 C274.08,800.53 219.18,800.42 187.00,800.09 L 128.50 799.50 L 128.77 796.50 C129.08,793.16 130.68,788.77 136.36,775.72 C137.26,773.63 138.02,771.38 138.03,770.72 C138.05,770.05 138.94,767.70 140.00,765.50 C141.06,763.30 141.95,760.80 141.97,759.95 C141.98,759.10 142.36,757.97 142.80,757.45 C143.24,756.93 144.62,753.80 145.87,750.50 C147.12,747.20 148.78,743.02 149.57,741.22 C150.36,739.41 151.00,737.07 151.00,736.03 C151.00,734.98 151.40,733.87 151.89,733.57 C152.38,733.27 153.07,731.85 153.43,730.42 C153.79,728.99 155.20,725.51 156.55,722.70 C157.91,719.88 159.43,716.21 159.93,714.54 C160.43,712.87 161.81,709.03 163.00,706.00 C164.18,702.97 165.51,699.36 165.94,697.97 C166.38,696.57 167.95,692.75 169.43,689.47 C174.29,678.71 175.00,676.95 175.00,675.68 C175.00,674.99 176.63,670.62 178.62,665.96 C180.61,661.31 183.59,653.90 185.25,649.50 C191.81,632.06 193.54,627.63 195.42,623.50 C198.78,616.10 200.00,612.81 200.00,611.16 C200.00,610.18 200.66,608.51 201.47,607.44 C202.28,606.37 202.95,604.75 202.97,603.83 C202.99,602.91 204.09,599.99 205.43,597.32 C206.77,594.66 208.98,589.11 210.34,584.99 C213.44,575.64 216.77,567.33 219.65,561.80 C220.42,560.32 221.94,556.27 223.03,552.80 C224.12,549.34 225.44,545.60 225.98,544.50 C226.51,543.40 227.59,540.70 228.37,538.50 C229.16,536.30 231.23,531.12 232.97,527.00 C234.72,522.88 237.06,516.80 238.18,513.50 C239.29,510.20 241.46,504.58 243.00,501.00 C244.54,497.42 247.23,490.67 248.98,486.00 C251.64,478.87 256.36,467.05 259.95,458.50 C260.41,457.40 262.24,452.45 264.01,447.50 C265.78,442.55 267.81,437.57 268.52,436.43 C269.23,435.30 270.26,432.82 270.82,430.93 C271.38,429.05 272.81,425.02 274.00,422.00 C275.18,418.98 276.51,415.36 276.94,413.97 C277.38,412.57 278.95,408.75 280.43,405.47 C285.44,394.37 286.00,392.94 286.00,391.16 C286.00,390.18 286.66,388.51 287.47,387.44 C288.28,386.37 288.95,384.94 288.97,384.25 C288.99,383.57 290.27,380.19 291.82,376.75 C293.37,373.31 295.73,367.20 297.07,363.16 C298.40,359.12 299.83,355.60 300.25,355.35 C300.66,355.09 301.00,354.21 301.00,353.39 C301.00,351.92 304.05,344.33 306.11,340.64 C306.69,339.61 308.23,335.56 309.55,331.64 C312.91,321.61 314.86,316.26 315.88,314.24 C316.37,313.28 317.24,311.38 317.82,310.00 C318.40,308.62 319.75,305.41 320.83,302.85 C321.91,300.30 323.10,296.82 323.47,295.12 C323.85,293.41 324.57,291.77 325.08,291.45 C325.58,291.14 326.00,290.13 326.00,289.21 C326.00,288.29 327.31,284.83 328.91,281.52 C330.51,278.21 332.72,272.80 333.83,269.50 C334.93,266.20 338.16,257.88 341.01,251.00 C343.85,244.12 346.78,236.70 347.52,234.50 C348.26,232.30 349.84,228.02 351.03,225.00 C352.22,221.98 354.20,216.80 355.44,213.50 C358.03,206.59 359.61,202.83 361.87,198.24 C363.08,195.76 363.20,194.55 362.37,193.24 C361.35,191.62 357.62,191.52 307.39,191.79 C254.08,192.07 239.45,192.84 234.13,195.61 C232.68,196.37 230.69,196.99 229.69,196.99 C228.70,197.00 225.21,198.33 221.93,199.96 C202.47,209.61 185.03,227.11 175.55,246.50 C169.63,258.62 169.44,259.06 167.63,265.50 C166.69,268.80 165.32,273.52 164.58,276.00 C160.42,289.85 157.00,305.71 157.00,311.17 C157.00,317.76 153.82,321.44 150.14,319.11 C149.02,318.40 148.98,316.06 149.94,305.38 C150.57,298.29 151.74,288.45 152.53,283.50 C153.33,278.55 154.45,268.20 155.03,260.50 C155.60,252.80 156.48,242.90 156.97,238.50 C157.47,234.10 158.39,224.88 159.02,218.00 C159.65,211.12 160.91,200.79 161.83,195.04 L 163.50 184.57 L 297.50 184.44 C371.20,184.37 432.06,184.51 432.75,184.76 C434.70,185.47 434.25,188.26 431.00,195.50 C429.35,199.18 428.00,202.64 428.00,203.19 C428.00,203.75 427.39,205.62 426.66,207.35 C425.92,209.08 423.83,214.32 422.03,219.00 C420.22,223.68 417.19,231.32 415.28,236.00 C413.37,240.68 411.18,246.19 410.41,248.25 C403.17,267.54 402.83,268.42 401.92,270.20 C400.42,273.11 394.00,289.67 394.00,290.61 C394.00,291.10 392.66,294.65 391.03,298.50 C389.39,302.35 385.79,311.35 383.02,318.50 C380.25,325.65 377.54,332.28 377.00,333.24 C375.94,335.08 374.68,338.44 371.07,349.00 C369.84,352.58 368.24,356.85 367.51,358.50 C366.77,360.15 364.74,365.10 363.00,369.50 C361.26,373.90 359.26,378.85 358.55,380.50 C355.83,386.84 347.98,407.54 347.99,408.35 C347.99,408.82 347.37,410.62 346.59,412.35 C343.39,419.49 332.00,448.67 332.00,449.71 C332.00,450.33 331.36,452.11 330.59,453.67 C328.69,457.46 326.54,462.54 324.51,468.00 C323.59,470.48 322.20,473.77 321.42,475.33 C320.64,476.89 320.00,478.76 320.00,479.50 C320.00,480.24 319.34,482.11 318.53,483.67 C317.72,485.23 315.66,490.33 313.95,495.00 C312.25,499.67 310.24,504.85 309.49,506.50 C308.75,508.15 307.83,510.62 307.45,512.00 C307.06,513.38 305.50,517.20 303.98,520.50 C302.45,523.80 300.41,528.97 299.45,532.00 C298.48,535.03 297.39,537.95 297.01,538.50 C296.63,539.05 295.31,542.42 294.06,546.00 C292.81,549.58 291.21,553.85 290.49,555.50 C289.77,557.15 288.47,560.41 287.59,562.75 C283.60,573.40 282.65,575.77 280.76,579.87 C278.39,585.00 275.24,593.18 273.89,597.70 C273.36,599.46 272.28,602.16 271.47,603.70 C270.67,605.24 270.01,607.09 270.01,607.81 C270.00,608.53 268.92,611.46 267.59,614.31 C264.61,620.73 261.98,627.27 258.46,637.00 C256.96,641.12 255.15,645.85 254.43,647.50 C253.70,649.15 251.48,654.78 249.49,660.00 C247.50,665.22 244.50,672.88 242.83,677.00 C241.16,681.12 239.16,686.19 238.40,688.25 C235.04,697.27 233.71,700.70 232.40,703.78 C231.63,705.59 231.00,707.50 231.00,708.03 C231.00,708.56 229.71,711.81 228.12,715.25 C226.54,718.69 224.23,724.20 222.99,727.50 C221.75,730.80 219.49,736.65 217.97,740.50 C216.45,744.35 214.63,749.08 213.94,751.00 C213.25,752.92 211.93,756.30 211.02,758.50 C208.64,764.22 206.01,770.87 204.30,775.50 C203.48,777.70 202.15,780.89 201.33,782.60 C200.52,784.30 200.00,787.22 200.18,789.10 L 200.50 792.50 L 274.83 792.76 L 349.15 793.01 L 358.83 790.39 C364.15,788.95 369.40,787.53 370.50,787.24 C371.60,786.95 372.95,786.39 373.50,786.00 C374.05,785.61 377.65,783.58 381.50,781.50 C399.48,771.76 413.48,756.43 423.35,735.67 C429.29,723.16 429.91,721.65 431.98,714.50 C433.10,710.65 434.46,706.13 435.00,704.45 C436.43,700.02 437.97,692.75 439.64,682.50 C442.12,667.27 443.13,664.55 446.45,664.17 L 449.32 663.84 L 448.68 676.17 C448.33,682.95 447.63,690.97 447.11,694.00 C446.13,699.81 444.10,718.01 441.48,744.50 C440.61,753.30 439.44,763.88 438.88,768.00 C438.32,772.12 437.50,780.62 437.05,786.87 C436.49,794.66 435.81,798.51 434.87,799.10 C434.12,799.58 419.77,799.98 403.00,799.99 Z" fill="rgb(8,8,8)"/>
<path d="M 0.00 501.00 L 0.00 0.00 L 523.00 0.00 L 1046.00 0.00 L 1046.00 501.00 L 1046.00 1002.00 L 523.00 1002.00 L 0.00 1002.00 L 0.00 501.00 ZM 403.00 799.99 C419.77,799.98 434.12,799.58 434.87,799.10 C435.81,798.51 436.49,794.66 437.05,786.87 C437.50,780.62 438.32,772.12 438.88,768.00 C439.44,763.88 440.61,753.30 441.48,744.50 C444.10,718.01 446.13,699.81 447.11,694.00 C447.63,690.97 448.33,682.95 448.68,676.17 L 449.32 663.84 L 446.45 664.17 C443.13,664.55 442.12,667.27 439.64,682.50 C437.97,692.75 436.43,700.02 435.00,704.45 C434.46,706.13 433.10,710.65 431.98,714.50 C429.91,721.65 429.29,723.16 423.35,735.67 C413.48,756.43 399.48,771.76 381.50,781.50 C377.65,783.58 374.05,785.61 373.50,786.00 C372.95,786.39 371.60,786.95 370.50,787.24 C369.40,787.53 364.15,788.95 358.83,790.39 L 349.15 793.01 L 274.83 792.76 L 200.50 792.50 L 200.18 789.10 C200.00,787.22 200.52,784.30 201.33,782.60 C202.15,780.89 203.48,777.70 204.30,775.50 C206.01,770.87 208.64,764.22 211.02,758.50 C211.93,756.30 213.25,752.92 213.94,751.00 C214.63,749.08 216.45,744.35 217.97,740.50 C219.49,736.65 221.75,730.80 222.99,727.50 C224.23,724.20 226.54,718.69 228.12,715.25 C229.71,711.81 231.00,708.56 231.00,708.03 C231.00,707.50 231.63,705.59 232.40,703.78 C233.71,700.70 235.04,697.27 238.40,688.25 C239.16,686.19 241.16,681.12 242.83,677.00 C244.50,672.88 247.50,665.22 249.49,660.00 C251.48,654.78 253.70,649.15 254.43,647.50 C255.15,645.85 256.96,641.12 258.46,637.00 C261.98,627.27 264.61,620.73 267.59,614.31 C268.92,611.46 270.00,608.53 270.01,607.81 C270.01,607.09 270.67,605.24 271.47,603.70 C272.28,602.16 273.36,599.46 273.89,597.70 C275.24,593.18 278.39,585.00 280.76,579.87 C282.65,575.77 283.60,573.40 287.59,562.75 C288.47,560.41 289.77,557.15 290.49,555.50 C291.21,553.85 292.81,549.58 294.06,546.00 C295.31,542.42 296.63,539.05 297.01,538.50 C297.39,537.95 298.48,535.03 299.45,532.00 C300.41,528.97 302.45,523.80 303.98,520.50 C305.50,517.20 307.06,513.38 307.45,512.00 C307.83,510.62 308.75,508.15 309.49,506.50 C310.24,504.85 312.25,499.67 313.95,495.00 C315.66,490.33 317.72,485.23 318.53,483.67 C319.34,482.11 320.00,480.24 320.00,479.50 C320.00,478.76 320.64,476.89 321.42,475.33 C322.20,473.77 323.59,470.48 324.51,468.00 C326.54,462.54 328.69,457.46 330.59,453.67 C331.36,452.11 332.00,450.33 332.00,449.71 C332.00,448.67 343.39,419.49 346.59,412.35 C347.37,410.62 347.99,408.82 347.99,408.35 C347.98,407.54 355.83,386.84 358.55,380.50 C359.26,378.85 361.26,373.90 363.00,369.50 C364.74,365.10 366.77,360.15 367.51,358.50 C368.24,356.85 369.84,352.58 371.07,349.00 C374.68,338.44 375.94,335.08 377.00,333.24 C377.54,332.28 380.25,325.65 383.02,318.50 C385.79,311.35 389.39,302.35 391.03,298.50 C392.66,294.65 394.00,291.10 394.00,290.61 C394.00,289.67 400.42,273.11 401.92,270.20 C402.83,268.42 403.17,267.54 410.41,248.25 C411.18,246.19 413.37,240.68 415.28,236.00 C417.19,231.32 420.22,223.68 422.03,219.00 C423.83,214.32 425.92,209.08 426.66,207.35 C427.39,205.62 428.00,203.75 428.00,203.19 C428.00,202.64 429.35,199.18 431.00,195.50 C434.25,188.26 434.70,185.47 432.75,184.76 C432.06,184.51 371.20,184.37 297.50,184.44 L 163.50 184.57 L 161.83 195.04 C160.91,200.79 159.65,211.12 159.02,218.00 C158.39,224.88 157.47,234.10 156.97,238.50 C156.48,242.90 155.60,252.80 155.03,260.50 C154.45,268.20 153.33,278.55 152.53,283.50 C151.74,288.45 150.57,298.29 149.94,305.38 C148.98,316.06 149.02,318.40 150.14,319.11 C153.82,321.44 157.00,317.76 157.00,311.17 C157.00,305.71 160.42,289.85 164.58,276.00 C165.32,273.52 166.69,268.80 167.63,265.50 C169.44,259.06 169.63,258.62 175.55,246.50 C185.03,227.11 202.47,209.61 221.93,199.96 C225.21,198.33 228.70,197.00 229.69,196.99 C230.69,196.99 232.68,196.37 234.13,195.61 C239.45,192.84 254.08,192.07 307.39,191.79 C357.62,191.52 361.35,191.62 362.37,193.24 C363.20,194.55 363.08,195.76 361.87,198.24 C359.61,202.83 358.03,206.59 355.44,213.50 C354.20,216.80 352.22,221.98 351.03,225.00 C349.84,228.02 348.26,232.30 347.52,234.50 C346.78,236.70 343.85,244.12 341.01,251.00 C338.16,257.88 334.93,266.20 333.83,269.50 C332.72,272.80 330.51,278.21 328.91,281.52 C327.31,284.83 326.00,288.29 326.00,289.21 C326.00,290.13 325.58,291.14 325.08,291.45 C324.57,291.77 323.85,293.41 323.47,295.12 C323.10,296.82 321.91,300.30 320.83,302.85 C319.75,305.41 318.40,308.62 317.82,310.00 C317.24,311.38 316.37,313.28 315.88,314.24 C314.86,316.26 312.91,321.61 309.55,331.64 C308.23,335.56 306.69,339.61 306.11,340.64 C304.05,344.33 301.00,351.92 301.00,353.39 C301.00,354.21 300.66,355.09 300.25,355.35 C299.83,355.60 298.40,359.12 297.07,363.16 C295.73,367.20 293.37,373.31 291.82,376.75 C290.27,380.19 288.99,383.57 288.97,384.25 C288.95,384.94 288.28,386.37 287.47,387.44 C286.66,388.51 286.00,390.18 286.00,391.16 C286.00,392.94 285.44,394.37 280.43,405.47 C278.95,408.75 277.38,412.57 276.94,413.97 C276.51,415.36 275.18,418.98 274.00,422.00 C272.81,425.02 271.38,429.05 270.82,430.93 C270.26,432.82 269.23,435.30 268.52,436.43 C267.81,437.57 265.78,442.55 264.01,447.50 C262.24,452.45 260.41,457.40 259.95,458.50 C256.36,467.05 251.64,478.87 248.98,486.00 C247.23,490.67 244.54,497.42 243.00,501.00 C241.46,504.58 239.29,510.20 238.18,513.50 C237.06,516.80 234.72,522.88 232.97,527.00 C231.23,531.12 229.16,536.30 228.37,538.50 C227.59,540.70 226.51,543.40 225.98,544.50 C225.44,545.60 224.12,549.34 223.03,552.80 C221.94,556.27 220.42,560.32 219.65,561.80 C216.77,567.33 213.44,575.64 210.34,584.99 C208.98,589.11 206.77,594.66 205.43,597.32 C204.09,599.99 202.99,602.91 202.97,603.83 C202.95,604.75 202.28,606.37 201.47,607.44 C200.66,608.51 200.00,610.18 200.00,611.16 C200.00,612.81 198.78,616.10 195.42,623.50 C193.54,627.63 191.81,632.06 185.25,649.50 C183.59,653.90 180.61,661.31 178.62,665.96 C176.63,670.62 175.00,674.99 175.00,675.68 C175.00,676.95 174.29,678.71 169.43,689.47 C167.95,692.75 166.38,696.57 165.94,697.97 C165.51,699.36 164.18,702.97 163.00,706.00 C161.81,709.03 160.43,712.87 159.93,714.54 C159.43,716.21 157.91,719.88 156.55,722.70 C155.20,725.51 153.79,728.99 153.43,730.42 C153.07,731.85 152.38,733.27 151.89,733.57 C151.40,733.87 151.00,734.98 151.00,736.03 C151.00,737.07 150.36,739.41 149.57,741.22 C148.78,743.02 147.12,747.20 145.87,750.50 C144.62,753.80 143.24,756.93 142.80,757.45 C142.36,757.97 141.98,759.10 141.97,759.95 C141.95,760.80 141.06,763.30 140.00,765.50 C138.94,767.70 138.05,770.05 138.03,770.72 C138.02,771.38 137.26,773.63 136.36,775.72 C130.68,788.77 129.08,793.16 128.77,796.50 L 128.50 799.50 L 187.00 800.09 C219.18,800.42 274.08,800.53 309.00,800.34 C343.92,800.16 386.23,799.99 403.00,799.99 ZM 631.75 799.52 C635.17,798.27 631.49,793.01 627.18,792.99 C622.79,792.97 611.85,789.12 608.14,786.29 C603.09,782.44 597.83,776.33 595.96,772.15 C591.21,761.53 591.00,757.89 591.00,686.16 C591.00,610.99 590.58,615.90 597.98,603.50 C599.95,600.20 602.12,596.38 602.81,595.00 C605.42,589.82 609.63,582.36 612.11,578.50 C616.00,572.46 619.84,565.80 621.06,563.00 C621.65,561.63 623.28,559.01 624.68,557.17 C626.08,555.34 628.89,550.61 630.93,546.67 C632.96,542.73 635.76,537.70 637.14,535.50 C638.52,533.30 639.97,530.83 640.35,530.00 C640.74,529.17 642.51,526.17 644.28,523.33 C646.05,520.49 648.85,515.87 650.50,513.07 C653.31,508.31 657.01,505.54 657.73,507.68 C657.90,508.19 660.10,512.19 662.61,516.56 C667.39,524.86 675.22,538.80 680.12,547.75 C681.71,550.64 684.29,555.36 685.88,558.25 C687.46,561.14 691.06,567.66 693.88,572.75 C696.69,577.84 699.00,582.22 699.00,582.48 C699.00,582.75 700.85,585.99 703.12,589.69 C705.38,593.40 709.48,600.72 712.23,605.96 C714.97,611.21 717.64,616.02 718.16,616.67 C718.68,617.31 721.02,621.58 723.36,626.17 C725.70,630.75 729.45,637.65 731.69,641.50 C733.94,645.35 737.24,651.20 739.03,654.50 C740.82,657.80 743.27,662.30 744.48,664.50 C745.69,666.70 748.62,672.10 751.01,676.50 C753.39,680.90 756.16,685.85 757.16,687.50 C758.16,689.15 759.30,691.17 759.68,692.00 C760.06,692.83 761.70,695.75 763.31,698.50 C764.93,701.25 768.49,707.78 771.24,713.00 C773.99,718.22 776.57,722.95 776.99,723.50 C777.41,724.05 779.36,727.51 781.33,731.19 C783.30,734.87 785.34,738.69 785.88,739.69 C789.31,746.11 794.00,756.37 794.00,757.47 C794.00,758.18 794.67,760.06 795.49,761.64 C797.69,765.85 797.43,776.13 794.98,781.81 C792.90,786.64 787.97,790.96 784.44,791.05 C783.37,791.07 780.92,791.87 779.00,792.81 C776.39,794.08 775.50,795.16 775.50,797.01 L 775.50 799.50 L 847.50 800.00 C887.80,800.28 920.05,800.12 920.75,799.63 C922.53,798.38 922.29,795.57 920.25,793.79 C919.29,792.95 915.65,791.98 912.16,791.64 C903.94,790.83 898.86,788.50 889.19,781.14 C878.46,772.98 870.59,763.31 859.54,744.72 C856.34,739.35 853.33,734.71 852.86,734.41 C852.39,734.12 852.00,733.27 852.00,732.52 C852.00,731.45 845.13,718.96 839.07,709.00 C838.57,708.17 836.50,704.35 834.47,700.50 C832.43,696.65 829.25,690.97 827.39,687.87 C825.52,684.77 824.00,681.77 824.00,681.20 C824.00,680.63 823.63,680.02 823.18,679.83 C822.73,679.65 820.01,675.05 817.14,669.61 C814.26,664.17 809.74,656.07 807.09,651.61 C802.13,643.25 794.28,629.53 790.44,622.50 C788.36,618.69 783.26,609.57 776.30,597.19 C774.54,594.06 772.05,589.47 770.77,587.00 C769.49,584.53 767.22,580.60 765.72,578.27 C764.22,575.94 763.00,573.84 763.00,573.60 C763.00,573.36 760.97,569.74 758.50,565.55 C756.03,561.37 754.00,557.68 754.00,557.36 C754.00,557.04 751.68,552.94 748.85,548.25 C743.53,539.45 738.05,529.74 735.43,524.50 C734.61,522.85 733.06,520.15 731.98,518.50 C730.90,516.85 729.71,514.83 729.32,514.00 C728.94,513.17 727.37,510.37 725.84,507.76 C724.32,505.16 721.45,499.98 719.47,496.26 C717.50,492.54 714.57,487.25 712.97,484.50 C711.36,481.75 708.76,477.02 707.18,474.00 C705.60,470.98 701.09,463.13 697.15,456.57 C693.22,450.01 690.00,444.04 690.00,443.30 C690.00,442.57 691.06,440.28 692.36,438.22 C693.66,436.16 697.75,428.63 701.44,421.49 C705.14,414.34 708.71,407.83 709.39,407.00 C710.07,406.17 711.77,403.25 713.17,400.50 C717.11,392.77 720.38,386.88 723.15,382.50 C724.55,380.30 727.29,375.29 729.26,371.37 C732.50,364.89 735.32,359.87 738.74,354.46 C739.43,353.38 741.76,349.09 743.92,344.92 C746.08,340.75 749.19,335.07 750.83,332.29 C752.46,329.52 755.28,324.60 757.09,321.37 C758.90,318.14 761.42,313.70 762.68,311.50 C763.94,309.30 765.37,306.60 765.86,305.50 C766.36,304.40 769.29,299.35 772.38,294.28 C775.47,289.21 778.00,284.77 778.00,284.41 C778.00,284.05 779.52,281.23 781.37,278.13 C783.23,275.03 787.12,268.00 790.03,262.50 C792.94,257.00 796.29,250.93 797.48,249.00 C798.67,247.07 799.97,244.82 800.36,244.00 C802.48,239.57 809.51,229.28 813.28,225.11 C819.20,218.56 830.88,210.48 842.00,205.25 C851.18,200.93 856.76,199.02 872.00,195.00 C873.92,194.49 879.55,193.57 884.50,192.95 C896.01,191.52 898.23,190.65 897.82,187.74 C897.50,185.52 897.31,185.49 875.50,184.88 C847.57,184.09 789.49,184.09 768.00,184.89 L 751.50 185.50 L 751.19 188.18 C750.79,191.65 752.59,192.56 761.62,193.42 C772.98,194.50 781.20,198.10 789.05,205.45 C796.48,212.40 800.00,217.66 800.00,221.80 C800.00,225.32 790.07,246.53 782.34,259.50 C778.80,265.45 775.87,270.69 769.89,281.75 C768.18,284.91 766.43,287.95 765.99,288.50 C765.55,289.05 764.11,291.52 762.78,294.00 C757.60,303.67 752.56,312.67 750.33,316.23 C749.05,318.28 748.00,320.24 748.00,320.59 C748.00,320.94 745.82,324.88 743.15,329.36 C740.48,333.84 738.01,338.17 737.65,339.00 C737.30,339.83 736.57,341.17 736.03,342.00 C732.89,346.80 726.00,359.33 726.00,360.25 C726.00,360.85 725.38,362.05 724.61,362.92 C723.85,363.79 721.90,366.98 720.28,370.00 C714.58,380.64 710.16,388.56 706.61,394.50 C704.64,397.80 701.77,402.98 700.22,406.00 C698.68,409.02 696.27,413.30 694.88,415.50 C693.49,417.70 692.04,420.17 691.67,421.00 C691.29,421.83 690.11,423.85 689.05,425.50 C687.98,427.15 685.96,430.75 684.54,433.50 C683.12,436.25 681.56,439.17 681.06,440.00 C676.45,447.65 672.87,454.07 668.32,462.84 C665.37,468.52 661.84,474.81 660.48,476.82 C659.12,478.82 658.00,480.82 658.00,481.25 C658.00,481.69 656.78,483.94 655.28,486.27 C652.42,490.72 651.43,492.49 645.84,503.00 C643.94,506.58 641.25,511.30 639.87,513.50 C638.49,515.70 635.20,521.55 632.56,526.50 C629.93,531.45 625.42,539.55 622.53,544.50 C614.90,557.60 609.41,567.29 608.65,569.00 C608.28,569.83 607.09,571.85 606.00,573.50 C603.38,577.47 597.00,590.39 597.00,591.72 C597.00,593.07 592.43,596.09 591.61,595.28 C591.28,594.94 591.00,511.70 591.00,410.30 C591.00,226.26 591.00,225.93 593.08,219.77 C595.87,211.48 597.07,209.33 602.03,203.70 C606.89,198.18 613.48,194.50 620.34,193.47 C629.80,192.05 633.50,190.50 633.50,187.93 C633.50,186.10 632.81,185.44 630.36,184.94 C624.62,183.77 490.22,183.81 488.02,184.99 C486.91,185.58 486.00,186.95 486.00,188.02 C486.00,190.46 490.78,192.58 498.42,193.53 C502.91,194.09 504.82,194.97 508.35,198.08 C513.15,202.30 518.94,213.05 520.97,221.50 C522.80,229.10 522.45,757.62 520.61,764.58 C519.02,770.59 516.81,775.03 512.32,781.20 C508.32,786.70 504.06,789.57 498.50,790.51 C496.30,790.88 492.56,791.88 490.20,792.74 C486.48,794.10 485.94,794.66 486.20,796.91 L 486.50 799.50 L 501.50 800.00 C519.28,800.59 629.94,800.19 631.75,799.52 Z" fill="rgb(253,253,253)"/>
</g>
</svg>